# xmcd
#
# Track frame offsets:
#	150
#	15003
#	26168
#	39552
#	57415
#	70007
#	85160
#	100067
#	111172
#	124473
#	142271
#	154616
#
# Disc length: 2263 seconds
#
# Revision: 1
# Processed by: cddbd v1.5.2PL0 Copyright (c) Steve Scherf et al.
# Submitted via: audiograbber 1.83.01
#
DISCID=9c08d50c
DTITLE=Dwight Yoakam - CBCDG-20497
DYEAR=1900
DGENRE=Karaoke
TTITLE0=Dwight Yoakam - Guitars And Cadillacs  w/vocals
TTITLE1=Dwight Yoakam - Always Late (With Your Kisses)  w/vocals
TTITLE2=Dwight Yoakam - Streets Of Bakersfield  w/vocals
TTITLE3=Dwight Yoakam - I Sang Dixie  w/vocals
TTITLE4=Dwight Yoakam - It Only Hurts When I Cry  w/vocals
TTITLE5=Dwight Yoakam - Ain't That Lonely Yet  w/vocals
TTITLE6=Dwight Yoakam - Guitars And Cadillacs
TTITLE7=Dwight Yoakam - Always Late (With Your Kisses)
TTITLE8=Dwight Yoakam - Steeets Of Bakersfield
TTITLE9=Dwight Yoakam - I Sang Dixie
TTITLE10=Dwight Yoakam - It Only Hurts When I Cry
TTITLE11=Dwight Yoakam - Ain't That Lonely Yet
EXTD=
EXTT0=
EXTT1=
EXTT2=
EXTT3=
EXTT4=
EXTT5=
EXTT6=
EXTT7=
EXTT8=
EXTT9=
EXTT10=
EXTT11=
PLAYORDER=
